<svg width="665" height="665" viewBox="0 0 665 665" fill="none" xmlns="http://www.w3.org/2000/svg">
<ellipse cx="331.5" cy="331.5" rx="270.5" ry="258.5" fill="#D9D9D9"/>
<path d="M212.334 13.6668V27.0001H185.667H159V40.3334V53.6668H145.667H132.333V67.0001V80.3335H118.867H105.534L105.8 93.2668L106.067 106.333L92.4668 106.733L79.0002 107.133V120.067V133L67.5335 132.467C61.2668 132.333 55.5335 132.6 55.0002 133.133C54.3335 133.8 53.6668 139.933 53.5335 146.6L53.2668 159H40.2002H27.0002V185.667V212.333H13.6668H0.333496V332.333V452.333H13.6668H27.0002L27.2668 478.6L27.6668 505H40.3335H53.0002V518.067C53.0002 533.4 52.6002 533 69.0002 532.067L79.0002 531.667V544.6V557.667H92.3335H105.667V571V584.333H119H132.333V597.667V611H145.667H159V624.333V637.667H185.667H212.334V651V664.333H331.667H451V651V637.667H477.667H504.2L504.6 624.6L505 611.667L517.934 611.267L530.867 610.867L531.267 597.933L531.667 585L544.734 584.6L557.667 584.2V571V557.667H571H584.333V544.6V531.667L594.334 532.067C599.8 532.333 605.8 532.2 607.667 531.8C610.867 531 611 530.733 611 518.333C611 503.933 609.4 505.267 626.334 505.133L637 505L637.4 478.733L637.667 452.467L650.734 452.067L663.667 451.667L664.067 331.933L664.334 212.333H651H637.667L637.4 185.933L637 159.667L624.067 159.267L611.134 158.867L610.734 145.933L610.334 133H597.4H584.333V119.933V107H571H557.667V93.6668V80.3335H544.333H531V67.0001V53.6668H517.667H504.334V40.3334V27.0001H477.667H451V13.6668V0.333435H331.667H212.334V13.6668ZM505.667 199V212.333H519H532.333V225.667V239H545.667H559V332.333V425.667H545.667H532.333V439V452.333H519H505.667V465.667V479H332.334H159V465.667V452.333H145.667H132.333V439V425.667H119H105.667V332.333V239H119H132.333V225.667V212.333H145.667H159V199V185.667H332.334H505.667V199Z" fill="#FF0000"/>
<path d="M292.6 331.933L293 398.333H305H317L317.667 385.267L318.333 372.067L344.733 372.333L371 372.467V359V345.667H384.334H397.667V332.333V319H384.334H371V305.667V292.333H344.333H317.667V279V265.667H305H292.333L292.6 331.933Z" fill="#FF0000"/>
</svg>
